# Blender v2.79 (sub 0) OBJ File: ''
# www.blender.org
mtllib test.mtl
o Cube
v -1.000000 -1.000000 1.000000
v -1.000000 -1.000000 -1.000000
v 1.000000 -1.000000 -1.000000
v 1.000000 -1.000000 1.000000
v -1.000000 1.000000 0.999999
v -0.999999 1.000000 -1.000001
v 1.000000 1.000000 -1.000000
v 1.000000 1.000000 1.000000
v -1.931980 2.219310 1.780058
v -1.931978 2.219310 -1.780059
v 1.931979 2.067389 1.931980
v 1.931980 2.067389 -1.931979
v -1.931980 2.923060 1.780058
v -1.931978 2.923060 -1.780059
v 0.410835 3.074981 0.410835
v 0.410835 3.074981 -0.410835
v -1.931981 2.067389 1.931979
v -1.931978 2.067389 -1.931980
v -0.410835 3.074981 0.410835
v -0.410835 3.074981 -0.410835
v -4.042607 2.219310 1.780056
v -4.042605 2.219310 -1.780061
v -4.042607 2.923060 1.780056
v -4.042605 2.923060 -1.780061
v -1.931981 3.074981 1.931979
v -1.931978 3.074981 -1.931980
v 1.931979 3.074981 1.931980
v 1.931980 3.074981 -1.931979
v -0.410835 5.710908 0.410835
v -0.410835 5.710908 -0.410835
v 0.410835 5.710908 0.410835
v 0.410835 5.710908 -0.410835
vn 0.0000 -1.0000 -0.0000
vn 0.0000 -0.6577 -0.7533
vn -1.0000 0.0000 -0.0000
vn 0.0000 -0.0000 -1.0000
vn 1.0000 -0.0000 0.0000
vn -0.0000 0.0000 1.0000
vn -0.7533 -0.6577 -0.0000
vn 0.7533 -0.6577 0.0000
vn -0.0000 -0.6577 0.7533
vn 0.0000 1.0000 0.0000
usemtl Material
s off
f 1//1 2//1 3//1 4//1
f 7//2 6//2 18//2 12//2
f 1//3 5//3 6//3 2//3
f 2//4 6//4 7//4 3//4
f 3//5 7//5 8//5 4//5
f 5//6 1//6 4//6 8//6
f 11//5 12//5 28//5 27//5
f 6//7 5//7 17//7 18//7
f 8//8 7//8 12//8 11//8
f 5//9 8//9 11//9 17//9
f 16//4 20//4 30//4 32//4
f 17//6 11//6 27//6 25//6
f 12//4 18//4 26//4 28//4
f 9//6 13//6 23//6 21//6
f 9//3 10//3 18//3 17//3
f 14//3 13//3 25//3 26//3
f 13//3 9//3 17//3 25//3
f 10//3 14//3 26//3 18//3
f 22//3 21//3 23//3 24//3
f 10//1 9//1 21//1 22//1
f 14//4 10//4 22//4 24//4
f 13//10 14//10 24//10 23//10
f 19//10 20//10 26//10 25//10
f 15//10 19//10 25//10 27//10
f 20//10 16//10 28//10 26//10
f 16//10 15//10 27//10 28//10
f 29//10 31//10 32//10 30//10
f 20//3 19//3 29//3 30//3
f 15//5 16//5 32//5 31//5
f 19//6 15//6 31//6 29//6
